<svg width="202" height="19" viewBox="0 0 202 19" fill="none" xmlns="http://www.w3.org/2000/svg">
<path d="M1.54 11.92C1.08667 11.6667 0.86 11.3467 0.86 10.96C0.86 10.5733 1.08667 10.2533 1.54 10L10.06 5.26C10.2867 5.14 10.5 5.08 10.7 5.08C11.0467 5.08 11.32 5.24667 11.52 5.58C11.64 5.75333 11.7 5.93333 11.7 6.12C11.7 6.29333 11.6467 6.46 11.54 6.62C11.4333 6.76667 11.28 6.88667 11.08 6.98L3.74 10.96L11.08 14.94C11.4933 15.1667 11.7 15.4533 11.7 15.8C11.7 15.9867 11.64 16.1667 11.52 16.34C11.2933 16.6867 11.0133 16.86 10.68 16.86C10.5067 16.86 10.3 16.7933 10.06 16.66L1.54 11.92ZM18.2386 16C17.2919 16 16.5519 15.7533 16.0186 15.26C15.4986 14.7533 15.2386 14.0533 15.2386 13.16V4.78C15.2386 3.91333 15.4919 3.23333 15.9986 2.74C16.5053 2.24667 17.2119 2 18.1186 2H24.3386C24.6853 2 24.9519 2.08 25.1386 2.24C25.3253 2.38667 25.4186 2.60667 25.4186 2.9C25.4186 3.18 25.3253 3.4 25.1386 3.56C24.9519 3.70667 24.6853 3.78 24.3386 3.78H18.4386C18.1453 3.78 17.9186 3.87333 17.7586 4.06C17.5986 4.24667 17.5186 4.5 17.5186 4.82V7.96H22.8186C23.1653 7.96 23.4319 8.04 23.6186 8.2C23.8053 8.34667 23.8986 8.56667 23.8986 8.86C23.8986 9.14 23.8053 9.36 23.6186 9.52C23.4319 9.66667 23.1653 9.74 22.8186 9.74H17.5186V13.18C17.5186 13.5 17.5986 13.7533 17.7586 13.94C17.9186 14.1267 18.1453 14.22 18.4386 14.22H24.7786C25.1253 14.22 25.3919 14.3 25.5786 14.46C25.7653 14.6067 25.8586 14.8267 25.8586 15.12C25.8586 15.4 25.7653 15.62 25.5786 15.78C25.3919 15.9267 25.1253 16 24.7786 16H18.2386ZM30.4097 16.2C30.063 16.2 29.7897 16.1067 29.5897 15.92C29.403 15.7333 29.3097 15.4733 29.3097 15.14V7.06C29.3097 6.72667 29.403 6.46667 29.5897 6.28C29.7897 6.09333 30.063 6 30.4097 6C30.7564 6 31.0297 6.1 31.2297 6.3C31.4297 6.48667 31.5297 6.74 31.5297 7.06V7.76C31.863 7.2 32.2764 6.76667 32.7697 6.46C33.2764 6.15333 33.8164 6 34.3897 6C34.9764 6 35.4964 6.16 35.9497 6.48C36.4164 6.78667 36.763 7.21333 36.9897 7.76C37.923 6.58667 39.003 6 40.2297 6C41.2964 6 42.1164 6.36 42.6897 7.08C43.2764 7.78667 43.5697 8.79333 43.5697 10.1V15.14C43.5697 15.4733 43.463 15.7333 43.2497 15.92C43.0497 16.1067 42.7764 16.2 42.4297 16.2C42.083 16.2 41.8097 16.1067 41.6097 15.92C41.423 15.7333 41.3297 15.4733 41.3297 15.14V9.98C41.3297 8.52667 40.8097 7.8 39.7697 7.8C38.8764 7.8 38.1697 8.32667 37.6497 9.38V15.14C37.6497 15.4733 37.5497 15.7333 37.3497 15.92C37.1497 16.1067 36.8764 16.2 36.5297 16.2C36.183 16.2 35.9097 16.1067 35.7097 15.92C35.5097 15.7333 35.4097 15.4733 35.4097 15.14V10.36C35.4097 8.65333 34.8964 7.8 33.8697 7.8C33.163 7.8 32.5964 8.08 32.1697 8.64C31.743 9.18667 31.5297 9.92667 31.5297 10.86V15.14C31.5297 15.46 31.4297 15.72 31.2297 15.92C31.0297 16.1067 30.7564 16.2 30.4097 16.2ZM48.4783 4.46C48.0516 4.46 47.6983 4.34 47.4183 4.1C47.1516 3.84667 47.0183 3.52667 47.0183 3.14C47.0183 2.75333 47.1516 2.44 47.4183 2.2C47.6983 1.94667 48.0516 1.82 48.4783 1.82C48.9049 1.82 49.2583 1.94667 49.5383 2.2C49.8183 2.44 49.9583 2.75333 49.9583 3.14C49.9583 3.52667 49.8183 3.84667 49.5383 4.1C49.2583 4.34 48.9049 4.46 48.4783 4.46ZM48.4783 16.2C48.1316 16.2 47.8583 16.1067 47.6583 15.92C47.4716 15.7333 47.3783 15.4733 47.3783 15.14V7.06C47.3783 6.72667 47.4716 6.46667 47.6583 6.28C47.8583 6.09333 48.1316 6 48.4783 6C48.8249 6 49.0983 6.09333 49.2983 6.28C49.5116 6.46667 49.6183 6.72667 49.6183 7.06V15.14C49.6183 15.4733 49.5116 15.7333 49.2983 15.92C49.0983 16.1067 48.8249 16.2 48.4783 16.2ZM55.0359 16.2C54.6893 16.2 54.4159 16.1067 54.2159 15.92C54.0159 15.7333 53.9159 15.4733 53.9159 15.14V1.88C53.9159 1.54667 54.0159 1.28667 54.2159 1.1C54.4159 0.913332 54.6893 0.819999 55.0359 0.819999C55.3826 0.819999 55.6559 0.913332 55.8559 1.1C56.0559 1.28667 56.1559 1.54667 56.1559 1.88V15.14C56.1559 15.46 56.0493 15.72 55.8359 15.92C55.6359 16.1067 55.3693 16.2 55.0359 16.2ZM70.0628 16C69.1161 16 68.3761 15.7533 67.8428 15.26C67.3228 14.7533 67.0628 14.0533 67.0628 13.16V4.78C67.0628 3.91333 67.3161 3.23333 67.8228 2.74C68.3295 2.24667 69.0361 2 69.9428 2H76.1628C76.5095 2 76.7761 2.08 76.9628 2.24C77.1495 2.38667 77.2428 2.60667 77.2428 2.9C77.2428 3.18 77.1495 3.4 76.9628 3.56C76.7761 3.70667 76.5095 3.78 76.1628 3.78H70.2628C69.9695 3.78 69.7428 3.87333 69.5828 4.06C69.4228 4.24667 69.3428 4.5 69.3428 4.82V7.96H74.6428C74.9895 7.96 75.2561 8.04 75.4428 8.2C75.6295 8.34667 75.7228 8.56667 75.7228 8.86C75.7228 9.14 75.6295 9.36 75.4428 9.52C75.2561 9.66667 74.9895 9.74 74.6428 9.74H69.3428V13.18C69.3428 13.5 69.4228 13.7533 69.5828 13.94C69.7428 14.1267 69.9695 14.22 70.2628 14.22H76.6028C76.9495 14.22 77.2161 14.3 77.4028 14.46C77.5895 14.6067 77.6828 14.8267 77.6828 15.12C77.6828 15.4 77.5895 15.62 77.4028 15.78C77.2161 15.9267 76.9495 16 76.6028 16H70.0628ZM82.2539 16.2C81.9072 16.2 81.6339 16.1067 81.4339 15.92C81.2339 15.7333 81.1339 15.4733 81.1339 15.14V7.06C81.1339 6.72667 81.2272 6.46667 81.4139 6.28C81.6139 6.09333 81.8806 6 82.2139 6C82.5606 6 82.8272 6.09333 83.0139 6.28C83.2139 6.46667 83.3139 6.72667 83.3139 7.06V7.84C84.3006 6.61333 85.6206 6 87.2739 6C88.5406 6 89.5339 6.38667 90.2539 7.16C90.9872 7.93333 91.3539 9 91.3539 10.36V15.14C91.3539 15.4733 91.2472 15.7333 91.0339 15.92C90.8339 16.1067 90.5606 16.2 90.2139 16.2C89.8672 16.2 89.5939 16.1067 89.3939 15.92C89.2072 15.7333 89.1139 15.4733 89.1139 15.14V10.36C89.1139 9.53333 88.9139 8.9 88.5139 8.46C88.1139 8.02 87.5472 7.8 86.8139 7.8C85.7472 7.8 84.9072 8.12 84.2939 8.76C83.6806 9.38667 83.3739 10.24 83.3739 11.32V15.14C83.3739 15.46 83.2672 15.72 83.0539 15.92C82.8539 16.1067 82.5872 16.2 82.2539 16.2ZM99.8391 16.2C98.7857 16.2 97.8524 16 97.0391 15.6C96.2391 15.1867 95.6124 14.6 95.1591 13.84C94.7191 13.0667 94.4991 12.16 94.4991 11.12C94.4991 10.0933 94.7124 9.19333 95.1391 8.42C95.5791 7.64667 96.2057 7.05333 97.0191 6.64C97.8324 6.21333 98.7924 6 99.8991 6C100.766 6 101.499 6.14667 102.099 6.44C102.699 6.73333 103.246 7.16 103.739 7.72L103.759 1.88C103.759 1.54667 103.859 1.28667 104.059 1.1C104.259 0.913332 104.532 0.819999 104.879 0.819999C105.226 0.819999 105.499 0.913332 105.699 1.1C105.899 1.28667 105.999 1.54667 105.999 1.88V15.14C105.999 15.4733 105.899 15.7333 105.699 15.92C105.499 16.1067 105.226 16.2 104.879 16.2C104.546 16.2 104.272 16.1067 104.059 15.92C103.859 15.72 103.759 15.46 103.759 15.14V14.44C102.839 15.6133 101.532 16.2 99.8391 16.2ZM100.159 14.4C101.279 14.4 102.159 14.1067 102.799 13.52C103.439 12.9333 103.759 12.1267 103.759 11.1C103.759 10.0733 103.426 9.26667 102.759 8.68C102.106 8.09333 101.239 7.8 100.159 7.8C99.0924 7.8 98.2591 8.1 97.6591 8.7C97.0591 9.28667 96.7591 10.0933 96.7591 11.12C96.7591 12.1733 97.0591 12.9867 97.6591 13.56C98.2591 14.12 99.0924 14.4 100.159 14.4ZM110.659 16.2C110.313 16.2 110.039 16.1067 109.839 15.92C109.639 15.7333 109.539 15.4733 109.539 15.14V7.06C109.539 6.72667 109.633 6.46667 109.819 6.28C110.019 6.09333 110.286 6 110.619 6C110.966 6 111.233 6.09333 111.419 6.28C111.619 6.46667 111.719 6.72667 111.719 7.06V7.9C112.586 6.76667 113.726 6.2 115.139 6.2H115.599C115.959 6.2 116.239 6.28 116.439 6.44C116.653 6.6 116.759 6.82 116.759 7.1C116.759 7.39333 116.653 7.62 116.439 7.78C116.239 7.92667 115.959 8 115.599 8H114.959C113.986 8 113.213 8.3 112.639 8.9C112.066 9.48667 111.779 10.2933 111.779 11.32V15.14C111.779 15.46 111.673 15.72 111.459 15.92C111.259 16.1067 110.993 16.2 110.659 16.2ZM124.051 16.2C122.905 16.2 121.905 16 121.051 15.6C120.211 15.1867 119.565 14.6 119.111 13.84C118.671 13.08 118.451 12.18 118.451 11.14C118.451 9.52667 118.931 8.26667 119.891 7.36C120.851 6.45333 122.185 6 123.891 6C124.945 6 125.878 6.16667 126.691 6.5C127.505 6.83333 128.138 7.3 128.591 7.9C129.045 8.48667 129.271 9.16 129.271 9.92C129.271 10.5333 129.085 11.0067 128.711 11.34C128.338 11.6733 127.811 11.84 127.131 11.84H120.651C120.651 12.6667 120.945 13.3067 121.531 13.76C122.118 14.2133 122.958 14.44 124.051 14.44C124.678 14.44 125.231 14.3733 125.711 14.24C126.191 14.1067 126.638 13.8933 127.051 13.6C127.438 13.3467 127.731 13.22 127.931 13.22C128.105 13.22 128.285 13.3133 128.471 13.5C128.685 13.7 128.791 13.92 128.791 14.16C128.791 14.4133 128.678 14.6267 128.451 14.8C127.331 15.7333 125.865 16.2 124.051 16.2ZM126.451 10.22C126.678 10.22 126.845 10.1733 126.951 10.08C127.058 9.98667 127.111 9.82667 127.111 9.6C127.111 9.05333 126.818 8.61333 126.231 8.28C125.645 7.93333 124.865 7.76 123.891 7.76C122.905 7.76 122.125 7.98667 121.551 8.44C120.978 8.88 120.691 9.47333 120.691 10.22H126.451ZM137.195 16.2C136.101 16.2 135.161 16.0333 134.375 15.7C133.601 15.3533 132.975 14.8867 132.495 14.3C132.335 14.0733 132.255 13.86 132.255 13.66C132.255 13.34 132.408 13.0867 132.715 12.9C132.901 12.7933 133.075 12.74 133.235 12.74C133.488 12.74 133.741 12.8667 133.995 13.12C134.448 13.5733 134.908 13.9067 135.375 14.12C135.855 14.32 136.428 14.42 137.095 14.42C137.708 14.42 138.208 14.3333 138.595 14.16C138.981 13.9867 139.175 13.7533 139.175 13.46C139.175 13.2333 139.101 13.0467 138.955 12.9C138.821 12.74 138.581 12.5867 138.235 12.44C137.888 12.2933 137.348 12.1 136.615 11.86C135.201 11.4067 134.201 10.9467 133.615 10.48C133.041 10 132.755 9.39333 132.755 8.66C132.755 7.83333 133.108 7.18667 133.815 6.72C134.521 6.24 135.481 6 136.695 6C137.615 6 138.455 6.14667 139.215 6.44C139.975 6.73333 140.535 7.12 140.895 7.6C141.041 7.78667 141.115 7.98667 141.115 8.2C141.115 8.46667 140.975 8.69333 140.695 8.88C140.521 9 140.321 9.06 140.095 9.06C139.788 9.06 139.481 8.92 139.175 8.64C138.575 8.06667 137.741 7.78 136.675 7.78C135.568 7.78 135.015 8.07333 135.015 8.66C135.015 8.88667 135.088 9.07333 135.235 9.22C135.381 9.36667 135.635 9.51333 135.995 9.66C136.368 9.79333 136.968 9.99333 137.795 10.26C138.701 10.54 139.415 10.8267 139.935 11.12C140.455 11.4133 140.828 11.7467 141.055 12.12C141.281 12.48 141.395 12.9267 141.395 13.46C141.395 14.2867 141.021 14.9533 140.275 15.46C139.528 15.9533 138.501 16.2 137.195 16.2ZM149.937 16.2C148.791 16.2 147.791 16 146.937 15.6C146.097 15.1867 145.451 14.6 144.997 13.84C144.557 13.08 144.337 12.18 144.337 11.14C144.337 9.52667 144.817 8.26667 145.777 7.36C146.737 6.45333 148.071 6 149.777 6C150.831 6 151.764 6.16667 152.577 6.5C153.391 6.83333 154.024 7.3 154.477 7.9C154.931 8.48667 155.157 9.16 155.157 9.92C155.157 10.5333 154.971 11.0067 154.597 11.34C154.224 11.6733 153.697 11.84 153.017 11.84H146.537C146.537 12.6667 146.831 13.3067 147.417 13.76C148.004 14.2133 148.844 14.44 149.937 14.44C150.564 14.44 151.117 14.3733 151.597 14.24C152.077 14.1067 152.524 13.8933 152.937 13.6C153.324 13.3467 153.617 13.22 153.817 13.22C153.991 13.22 154.171 13.3133 154.357 13.5C154.571 13.7 154.677 13.92 154.677 14.16C154.677 14.4133 154.564 14.6267 154.337 14.8C153.217 15.7333 151.751 16.2 149.937 16.2ZM152.337 10.22C152.564 10.22 152.731 10.1733 152.837 10.08C152.944 9.98667 152.997 9.82667 152.997 9.6C152.997 9.05333 152.704 8.61333 152.117 8.28C151.531 7.93333 150.751 7.76 149.777 7.76C148.791 7.76 148.011 7.98667 147.437 8.44C146.864 8.88 146.577 9.47333 146.577 10.22H152.337ZM159.541 16.2C159.194 16.2 158.921 16.1067 158.721 15.92C158.521 15.7333 158.421 15.4733 158.421 15.14V7.06C158.421 6.72667 158.514 6.46667 158.701 6.28C158.901 6.09333 159.167 6 159.501 6C159.847 6 160.114 6.09333 160.301 6.28C160.501 6.46667 160.601 6.72667 160.601 7.06V7.84C161.587 6.61333 162.907 6 164.561 6C165.827 6 166.821 6.38667 167.541 7.16C168.274 7.93333 168.641 9 168.641 10.36V15.14C168.641 15.4733 168.534 15.7333 168.321 15.92C168.121 16.1067 167.847 16.2 167.501 16.2C167.154 16.2 166.881 16.1067 166.681 15.92C166.494 15.7333 166.401 15.4733 166.401 15.14V10.36C166.401 9.53333 166.201 8.9 165.801 8.46C165.401 8.02 164.834 7.8 164.101 7.8C163.034 7.8 162.194 8.12 161.581 8.76C160.967 9.38667 160.661 10.24 160.661 11.32V15.14C160.661 15.46 160.554 15.72 160.341 15.92C160.141 16.1067 159.874 16.2 159.541 16.2ZM179.297 18.04C179.071 17.9467 178.904 17.8133 178.797 17.64C178.691 17.48 178.637 17.3 178.637 17.1C178.637 16.9133 178.677 16.74 178.757 16.58L185.937 0.699999C186.151 0.259999 186.471 0.0399992 186.897 0.0399992C187.057 0.0399992 187.211 0.066666 187.357 0.119999C187.584 0.199999 187.757 0.319999 187.877 0.48C187.997 0.626666 188.057 0.799999 188.057 0.999999C188.057 1.14667 188.017 1.3 187.937 1.46L180.697 17.4C180.591 17.6267 180.451 17.8 180.277 17.92C180.104 18.0533 179.911 18.12 179.697 18.12C179.551 18.12 179.417 18.0933 179.297 18.04ZM192.791 16.66C192.551 16.7933 192.337 16.86 192.151 16.86C191.804 16.86 191.531 16.6867 191.331 16.34C191.211 16.1667 191.151 15.9867 191.151 15.8C191.151 15.4533 191.357 15.1667 191.771 14.94L199.111 10.96L191.771 6.98C191.357 6.75333 191.151 6.46667 191.151 6.12C191.151 5.93333 191.211 5.75333 191.331 5.58C191.531 5.24667 191.804 5.08 192.151 5.08C192.351 5.08 192.564 5.14 192.791 5.26L201.311 10C201.751 10.24 201.971 10.56 201.971 10.96C201.971 11.36 201.751 11.68 201.311 11.92L192.791 16.66Z" fill="#FAEEEF"/>
</svg>
