<svg width="249" height="249" viewBox="0 0 249 249" fill="none" xmlns="http://www.w3.org/2000/svg">
<g clip-path="url(#clip0_260_208)">
<path d="M202.956 190.687L166.333 160.283C164.767 158.989 162.823 158.238 160.793 158.144C158.764 158.05 156.759 158.617 155.08 159.761L129.78 176.956C104.696 154.573 88.1834 124.16 83.0732 90.933L111.273 79.079C113.149 78.2972 114.72 76.9253 115.746 75.1712C116.773 73.4171 117.201 71.3762 116.964 69.3574L111.412 22.0838C111.141 19.9032 110.119 17.8853 108.52 16.3779C106.921 14.8706 104.847 13.9683 102.654 13.8267L61.0392 11.2776C58.923 11.1482 56.8255 11.74 55.089 12.9563C53.3525 14.1726 52.0795 15.9415 51.4778 17.9745C23.0208 114.044 77.8667 214.826 173.786 243.238C175.819 243.842 177.997 243.738 179.963 242.945C181.93 242.151 183.569 240.714 184.614 238.868L205.141 202.579C206.216 200.652 206.587 198.41 206.188 196.24C205.789 194.069 204.646 192.106 202.956 190.687Z" fill="#5BA377"/>
</g>
<defs>
<clipPath id="clip0_260_208">
<rect width="200" height="200" fill="white" transform="translate(56.8031) rotate(16.5)"/>
</clipPath>
</defs>
</svg>
